<?xml version="1.0" encoding="UTF-8" standalone="no"?>
<svg
   width="20"
   height="24"
   viewBox="0 0 20 24"
   fill="none"
   version="1.1"
   id="svg8"
   sodipodi:docname="Group.svg"
   inkscape:version="1.2.1 (9c6d41e410, 2022-07-14, custom)"
   xmlns:inkscape="http://www.inkscape.org/namespaces/inkscape"
   xmlns:sodipodi="http://sodipodi.sourceforge.net/DTD/sodipodi-0.dtd"
   xmlns="http://www.w3.org/2000/svg"
   xmlns:svg="http://www.w3.org/2000/svg">
  <defs
     id="defs12" />
  <sodipodi:namedview
     id="namedview10"
     pagecolor="#ffffff"
     bordercolor="#111111"
     borderopacity="1"
     inkscape:showpageshadow="0"
     inkscape:pageopacity="0"
     inkscape:pagecheckerboard="1"
     inkscape:deskcolor="#d1d1d1"
     showgrid="false"
     inkscape:zoom="32.291667"
     inkscape:cx="7.8658065"
     inkscape:cy="11.72129"
     inkscape:window-width="1920"
     inkscape:window-height="1011"
     inkscape:window-x="0"
     inkscape:window-y="0"
     inkscape:window-maximized="1"
     inkscape:current-layer="svg8" />
  <path
     id="path6"
     d="m 14,9.7977 c 0,1.1401 -0.4214,2.2335 -1.1716,3.0397 -0.7501,0.8062 -1.7675,1.2591 -2.8284,1.2591 -1.06087,0 -2.07828,-0.4529 -2.82843,-1.2591 C 6.42143,12.0312 6,10.9378 6,9.7977 M 1,5.4989 H 19 M 4,1.2001 1,5.4989 v 15.0458 c 0,0.5701 0.21071,1.1168 0.58579,1.5199 0.37507,0.403 0.88378,0.6295 1.41421,0.6295 h 14 c 0.5304,0 1.0391,-0.2265 1.4142,-0.6295 C 18.7893,21.6615 19,21.1148 19,20.5447 V 5.4989 L 16,1.2001 Z"
     style="stroke:#000000;stroke-width:1.9;stroke-linecap:round;stroke-linejoin:round;stroke-dasharray:none;stroke-opacity:1;paint-order:markers stroke fill" />
</svg>
